<svg xmlns="http://www.w3.org/2000/svg" width="152" height="36" fill="none">
    <path fill="#25CFE8" d="M18 0C8.059 0 0 7.897 0 17.64v.72C0 28.104 8.059 36 18 36s18-7.897 18-17.64v-.72C36 7.896 27.941 0 18 0Z"/>
    <path fill="#fff" d="M26.98 8.867h-4.047l-4.648 6.681h-.47l-4.412-6.68H9.199l6.084 9.029-6.58 9.238h4.152l4.856-6.707h.47l4.804 6.707h4.334l-6.58-9.316 6.24-8.952Z"/>
    <path fill="#fff" d="M59.189 10.266h-3.364l-3.862 5.483h-.39l-3.667-5.483h-3.494l5.056 7.411L44 25.26h3.45l4.036-5.505h.39l3.993 5.505h3.602l-5.468-7.647 5.186-7.347ZM81.544 18.71h-4.925v-4.112h-2.713v10.71h2.712v-4.134h4.926v4.134h2.712v-10.71h-2.712v4.112ZM65.32 23.011c-1.736 0-2.95-1.35-2.95-3.084 0-1.885 1.214-3.128 2.95-3.128 1.823 0 3.038 1.243 3.038 3.128 0 1.735-1.215 3.084-3.038 3.084Zm3.125-7.326h-.109c-.564-.728-1.714-1.392-3.341-1.392-3.06 0-5.425 2.506-5.425 5.655 0 3.085 2.365 5.57 5.425 5.57 1.627 0 2.777-.665 3.341-1.393h.109l.152 1.136h2.495V14.55h-2.495l-.152 1.135ZM147.858 14.602l-3.146 6.94h-.283l-3.471-6.94h-3.255l5.316 10.239-2.256 4.755h3.254l7.095-14.994h-3.254ZM131.706 23.02c-1.801 0-3.06-1.286-3.06-3.043 0-1.82 1.259-3.084 3.06-3.084 1.822 0 3.102 1.264 3.102 3.084 0 1.757-1.28 3.042-3.102 3.042Zm0-8.676c-3.342 0-5.815 2.506-5.815 5.655 0 3.085 2.473 5.57 5.815 5.57 3.406 0 5.902-2.485 5.902-5.57 0-3.149-2.496-5.655-5.902-5.655ZM114.33 20.085c-.044 2.014-.695 2.635-1.932 2.635h-.195v2.592c3.211.214 4.752-1.371 4.86-5.055l.087-3.192h4.036v8.247h2.712v-10.71h-9.438l-.13 5.483ZM105.21 22.869v-5.826c1.888 0 3.233 1.114 3.233 2.934 0 1.757-1.345 2.892-3.233 2.892Zm-2.712 0c-1.888 0-3.233-1.135-3.233-2.892 0-1.82 1.345-2.934 3.233-2.934v5.826Zm2.712-8.311v-4.242h-2.712v4.242c-3.407 0-5.967 2.292-5.967 5.42 0 3.105 2.56 5.376 5.967 5.376v4.284h2.712v-4.284c3.407 0 5.967-2.27 5.967-5.377 0-3.127-2.56-5.42-5.967-5.42ZM86.273 17.061h3.364v8.247h2.712v-8.247h3.385v-2.463h-9.46v2.463Z"/>
</svg>
