<svg width="11" height="13" viewBox="0 0 11 13" fill="none" xmlns="http://www.w3.org/2000/svg">
<g clip-path="url(#clip0_9555_1967)">
<path d="M5.5294 1.00198L5.56533 0.00262558L5.56372 0.00257007L5.5294 1.00198ZM9.79905 6.09106L8.80149 6.02126L8.79905 6.05612V6.09106H9.79905ZM3.22412 4.03377V5.03377H4.22412V4.03377H3.22412ZM5.5294 1.94555L5.58154 0.946905L5.57821 0.946742L5.5294 1.94555ZM3.20788 4.03377V3.03377H2.20788V4.03377H3.20788ZM9.37696 4.67342H8.74382V6.67342H9.37696V4.67342ZM8.74382 4.67342C9.10139 4.67342 9.58147 4.95218 9.58147 5.51873H7.58147C7.58147 6.27091 8.2239 6.67342 8.74382 6.67342V4.67342ZM9.58147 5.51873V4.09565H7.58147V5.51873H9.58147ZM9.58147 4.09565C9.58147 1.90586 7.81223 0.083413 5.56533 0.00262558L5.49347 2.00133C6.68827 2.04429 7.58147 3.00614 7.58147 4.09565H9.58147ZM5.56372 0.00257007C3.24325 -0.0771045 1.23382 1.70515 1.23382 4.03377H3.23382C3.23382 2.92842 4.21152 1.95732 5.49509 2.00139L5.56372 0.00257007ZM1.23382 4.03377V5.5342H3.23382V4.03377H1.23382ZM1.23382 5.5342C1.23382 5.07883 1.59722 4.68889 2.07147 4.68889V6.68889C2.74054 6.68889 3.23382 6.14425 3.23382 5.5342H1.23382ZM2.07147 4.68889H1.43833V6.68889H2.07147V4.68889ZM1.43833 4.68889C0.688631 4.68889 0 5.27722 0 6.10653H2C2 6.47179 1.701 6.68889 1.43833 6.68889V4.68889ZM0 6.10653V11.5824H2V6.10653H0ZM0 11.5824C0 12.4117 0.688629 13 1.43833 13V11C1.701 11 2 11.2171 2 11.5824H0ZM1.43833 13H9.36072V11H1.43833V13ZM9.36072 13C10.1104 13 10.7991 12.4117 10.7991 11.5824H8.79905C8.79905 11.2171 9.09806 11 9.36072 11V13ZM10.7991 11.5824V6.09106H8.79905V11.5824H10.7991ZM10.7966 6.16086C10.8595 5.26253 10.1082 4.67342 9.37696 4.67342V6.67342C9.13276 6.67342 8.77111 6.45555 8.80149 6.02126L10.7966 6.16086ZM4.22412 4.03377C4.22412 3.45629 4.7421 2.90827 5.4806 2.94435L5.57821 0.946742C3.78413 0.859079 2.22412 2.22912 2.22412 4.03377H4.22412ZM5.47726 2.94419C6.14727 2.97917 6.62364 3.51454 6.62364 4.09565H8.62364C8.62364 2.41837 7.28176 1.03567 5.58154 0.946905L5.47726 2.94419ZM6.62364 4.09565V5.5342H8.62364V4.09565H6.62364ZM6.62364 5.5342C6.62364 5.07883 6.98705 4.68889 7.4613 4.68889V6.68889C8.13036 6.68889 8.62364 6.14425 8.62364 5.5342H6.62364ZM7.4613 4.68889H3.37022V6.68889H7.4613V4.68889ZM3.37022 4.68889C3.72781 4.68889 4.20788 4.96765 4.20788 5.5342H2.20788C2.20788 6.28637 2.8503 6.68889 3.37022 6.68889V4.68889ZM4.20788 5.5342V4.03377H2.20788V5.5342H4.20788ZM3.20788 5.03377H3.22412V3.03377H3.20788V5.03377Z" fill="white"/>
<path fill-rule="evenodd" clip-rule="evenodd" d="M5.5294 1.00201C7.25025 1.06388 8.58147 2.45603 8.58147 4.09568V5.51876C8.58147 5.61157 8.66264 5.67345 8.74382 5.67345H9.37696C9.62048 5.67345 9.81529 5.85907 9.79905 6.09109V11.5824C9.79905 11.8144 9.60424 12 9.36072 12H1.43833C1.19481 12 1 11.8144 1 11.5824V6.10656C1 5.87454 1.19481 5.68892 1.43833 5.68892H2.07147C2.16888 5.68892 2.23382 5.61157 2.23382 5.53423V4.0338C2.23382 2.31682 3.72738 0.940131 5.5294 1.00201ZM5.5294 1.94558C4.26312 1.8837 3.22412 2.84274 3.22412 4.0338H3.20788V5.53423C3.20788 5.62704 3.28905 5.68892 3.37022 5.68892H7.4613C7.5587 5.68892 7.62364 5.61157 7.62364 5.53423V4.09568C7.62364 2.96649 6.71451 2.00745 5.5294 1.94558Z" fill="#DB525E"/>
</g>
<defs>
<clipPath id="clip0_9555_1967">
<rect width="10.8" height="13" fill="white"/>
</clipPath>
</defs>
</svg>
